<svg xmlns="http://www.w3.org/2000/svg" viewBox="0 0 64 64">
  <g fill="none" stroke="#2f2f2f" stroke-width="2.4" stroke-linecap="round" stroke-linejoin="round">
    <path d="M32 54V30"/>
    <path d="M32 38c-4-3-7-7-10-12"/>
    <path d="M32 34c5-4 9-9 13-15"/>
    <path d="M32 42c-6-1-11-4-16-9"/>
    <path d="M32 41c6-1 12-4 18-9"/>
    <path d="M32 28c-3-4-5-8-6-13"/>
    <path d="M32 28c3-4 6-8 10-12"/>
    <path d="M32 46c-2-1-4-2-6-4"/>
    <path d="M32 46c2-1 4-2 6-4"/>
    <path d="M22 54h20"/>
  </g>
</svg>